<svg width="150" height="150" viewBox="0 0 150 150" fill="none" xmlns="http://www.w3.org/2000/svg">
<g clip-path="url(#clip0)">
<path d="M30 15H15V30H30V15Z" fill="black"/>
<path d="M105 0V7.5H97.4999V15H105V45H112.5V52.5H105V60H112.5H120V45H142.5V52.5H150V45V0H105ZM142.5 37.5H112.5V7.5H142.5V37.5Z" fill="black"/>
<path d="M135 15H120V30H135V15Z" fill="black"/>
<path d="M30 120H15V135H30V120Z" fill="black"/>
<path d="M112.5 105H105V112.5H112.5V105Z" fill="black"/>
<path d="M75 142.5H67.5V150H75V142.5Z" fill="black"/>
<path d="M82.5 112.5H75V120H82.5V112.5Z" fill="black"/>
<path d="M82.5 127.5H75V135H82.5V127.5Z" fill="black"/>
<path d="M150 90H142.5V97.5H150V90Z" fill="black"/>
<path d="M7.5 90H0V97.5H7.5V90Z" fill="black"/>
<path d="M7.5 52.5H0V60H7.5V52.5Z" fill="black"/>
<path d="M82.5 7.5V15H67.5V22.5H90V15V7.5H82.5Z" fill="black"/>
<path d="M142.5 60V67.5H127.5V75H105V67.5H97.5V75H82.5V82.5H105V90H90H82.5V82.5H75V90H67.5V82.5H60V90H52.5V97.5H67.5V105H75V97.5H90V105H82.5V112.5H90V127.5H97.5V135H105V127.5H127.5V112.5H135V105H127.5V90H112.5V82.5H127.5V90H135V82.5H142.5V75H150V67.5V60H142.5ZM120 97.5V120H97.5V97.5H120Z" fill="black"/>
<path d="M97.5 45H90V52.5H82.5V60V67.5H90V60H97.5V52.5H105V45H97.5Z" fill="black"/>
<path d="M97.5 142.5H82.5V150H97.5V142.5Z" fill="black"/>
<path d="M67.5 7.5H60V15H67.5V7.5Z" fill="black"/>
<path d="M127.5 60H120V67.5H127.5V60Z" fill="black"/>
<path d="M135 52.5H127.5V60H135V52.5Z" fill="black"/>
<path d="M37.5 90H30V97.5H37.5V90Z" fill="black"/>
<path d="M45 142.5V112.5H52.5V105V97.5H45V105H22.5V97.5H15H7.5V105H0V150H45H60V142.5H45ZM37.5 142.5H7.5V112.5H37.5V142.5Z" fill="black"/>
<path d="M52.5 45H45V52.5H52.5V45Z" fill="black"/>
<path d="M52.5 0H45H0V45H7.5V52.5H15V45H22.5V52.5H30V45H45V30H52.5V22.5H45V7.5H52.5H60V0H52.5ZM37.5 37.5H7.5V7.5H37.5V37.5Z" fill="black"/>
<path d="M97.5001 22.5H90.0001V30H97.5001V22.5Z" fill="black"/>
<path d="M82.5 0H75V7.5H82.5V0Z" fill="black"/>
<path d="M90 45V37.5H82.5V30H75V37.5H60V30H52.5V37.5V45H60V60H37.5V52.5H30V60H7.5V67.5H22.5V75H0V82.5H22.5V90H30V82.5H37.5V90H45V82.5H60V75H52.5V67.5H60H67.5V75H75H82.5V67.5H75V60H67.5V45H90ZM45 75H30V67.5H45V75Z" fill="black"/>
<path d="M67.5 120V112.5V105H60V112.5H52.5V120H60V127.5H52.5V135H67.5V127.5H75V120H67.5Z" fill="black"/>
<path d="M135 135V127.5H127.5V135H105V142.5H120V150H127.5V142.5H142.5V150H150V142.5V135H135Z" fill="black"/>
<path d="M142.5 105V112.5H135V120H150V112.5V105H142.5Z" fill="black"/>
</g>
<defs>
<clipPath id="clip0">
<rect width="150" height="150" fill="white"/>
</clipPath>
</defs>
</svg>
